<?xml version="1.0" encoding="utf-8"?>
<!-- Generator: Adobe Illustrator 25.0.0, SVG Export Plug-In . SVG Version: 6.00 Build 0)  -->
<svg version="1.1" id="Layer_1" xmlns="http://www.w3.org/2000/svg" xmlns:xlink="http://www.w3.org/1999/xlink" x="0px" y="0px"
	 viewBox="0 0 66.22 34.77" style="enable-background:new 0 0 66.22 34.77;" xml:space="preserve">
<style type="text/css">
	.st0{fill:#FFFFFF;}
</style>
<g>
	<path class="st0" d="M0,15.26h2v2.94h0.1c0.38-0.48,0.87-0.86,1.46-1.12s1.24-0.4,1.94-0.4c1.62,0,2.83,0.52,3.64,1.55
		c0.81,1.03,1.21,2.63,1.21,4.8c0,2.18-0.53,3.84-1.6,4.98c-1.07,1.13-2.57,1.7-4.5,1.7c-0.93,0-1.78-0.1-2.54-0.3
		C0.95,29.2,0.38,28.98,0,28.75V15.26z M5.15,18.42c-0.83,0-1.51,0.23-2.03,0.7C2.61,19.59,2.23,20.25,2,21.1v6.3
		c0.32,0.18,0.7,0.32,1.15,0.41c0.45,0.09,0.92,0.14,1.4,0.14c1.13,0,2.04-0.4,2.71-1.2c0.67-0.8,1.01-2.05,1.01-3.75
		c0-0.65-0.06-1.26-0.18-1.82s-0.3-1.05-0.55-1.45S6.98,19,6.59,18.77C6.2,18.54,5.72,18.42,5.15,18.42z"/>
	<path class="st0" d="M19.4,18.9c-0.5-0.17-0.98-0.25-1.43-0.25c-0.72,0-1.28,0.2-1.7,0.59c-0.42,0.39-0.68,0.89-0.78,1.49v8.75h-2
		v-12.5h1.4l0.38,1.52h0.1c0.32-0.57,0.7-1,1.14-1.31c0.44-0.31,1-0.46,1.69-0.46c0.48,0,1.02,0.08,1.62,0.25L19.4,18.9z"/>
	<path class="st0" d="M22.42,16.97h2v12.5h-2V16.97z"/>
	<path class="st0" d="M38.3,25.17c0,0.85,0.01,1.62,0.02,2.31s0.09,1.37,0.23,2.04H37.2l-0.5-1.77h-0.1
		c-0.33,0.58-0.82,1.07-1.45,1.45c-0.63,0.38-1.38,0.57-2.23,0.57c-1.67,0-2.9-0.52-3.71-1.57C28.4,27.15,28,25.5,28,23.27
		c0-2.13,0.5-3.75,1.51-4.86s2.4-1.66,4.16-1.66c0.62,0,1.1,0.03,1.46,0.1c0.36,0.07,0.75,0.17,1.16,0.33v-3.36l2,0.07V25.17z
		 M33.25,28.02c0.85,0,1.52-0.22,2.02-0.66s0.84-1.11,1.02-2.01v-6.2c-0.3-0.23-0.64-0.4-1.02-0.5c-0.38-0.1-0.89-0.15-1.52-0.15
		c-1.15,0-2.05,0.38-2.7,1.14s-0.98,1.97-0.98,3.64c0,0.68,0.05,1.32,0.16,1.9s0.29,1.08,0.54,1.5s0.58,0.75,0.99,0.99
		C32.17,27.9,32.67,28.02,33.25,28.02z"/>
	<path class="st0" d="M51.72,30.05c0,1.62-0.43,2.81-1.29,3.57s-2.13,1.15-3.81,1.15c-1,0-1.8-0.06-2.41-0.19s-1.13-0.29-1.56-0.49
		l0.53-1.7c0.38,0.15,0.81,0.29,1.27,0.43c0.47,0.13,1.07,0.2,1.82,0.2c0.7,0,1.27-0.06,1.71-0.19c0.44-0.12,0.8-0.33,1.06-0.62
		c0.27-0.29,0.45-0.67,0.55-1.12s0.15-1,0.15-1.64v-1.2h-0.1c-0.33,0.48-0.76,0.85-1.27,1.11c-0.52,0.26-1.19,0.39-2.02,0.39
		c-1.68,0-2.92-0.52-3.71-1.57c-0.79-1.05-1.19-2.68-1.19-4.9c0-2.13,0.51-3.75,1.52-4.86s2.52-1.66,4.5-1.66
		c0.95,0,1.76,0.08,2.44,0.23s1.28,0.33,1.81,0.52V30.05z M46.7,28c0.85,0,1.52-0.21,2-0.64c0.48-0.43,0.82-1.09,1.02-1.99v-6.4
		c-0.67-0.32-1.52-0.48-2.55-0.48c-1.13,0-2.03,0.38-2.68,1.15c-0.65,0.77-0.98,1.97-0.98,3.6c0,0.7,0.06,1.34,0.18,1.93
		c0.12,0.58,0.3,1.08,0.55,1.5s0.58,0.74,0.98,0.97C45.62,27.88,46.12,28,46.7,28z"/>
	<path class="st0" d="M64.7,28.47c-0.5,0.4-1.13,0.72-1.89,0.95c-0.76,0.23-1.56,0.35-2.41,0.35c-0.95,0-1.77-0.15-2.48-0.46
		c-0.7-0.31-1.27-0.75-1.73-1.32c-0.45-0.58-0.78-1.26-1-2.06c-0.22-0.8-0.32-1.7-0.32-2.7c0-2.13,0.48-3.76,1.42-4.88
		c0.95-1.12,2.31-1.67,4.08-1.67c0.57,0,1.13,0.06,1.7,0.19s1.08,0.36,1.53,0.71c0.45,0.35,0.82,0.85,1.1,1.49
		c0.28,0.64,0.43,1.49,0.43,2.54c0,0.55-0.05,1.16-0.15,1.83h-8.03c0,0.73,0.08,1.38,0.23,1.95c0.15,0.57,0.38,1.05,0.7,1.44
		c0.32,0.39,0.73,0.69,1.24,0.9c0.51,0.21,1.13,0.31,1.86,0.31c0.57,0,1.13-0.1,1.7-0.3c0.57-0.2,0.99-0.43,1.27-0.7L64.7,28.47z
		 M60.4,18.42c-0.98,0-1.77,0.26-2.36,0.77c-0.59,0.52-0.95,1.4-1.06,2.65h6.2c0-1.27-0.24-2.15-0.73-2.66
		C61.97,18.67,61.28,18.42,60.4,18.42z"/>
</g>
<path class="st0" d="M22.5,1.09c0-0.3,0.09-0.55,0.28-0.77C22.96,0.11,23.2,0,23.48,0c0.29,0,0.53,0.11,0.73,0.32
	c0.2,0.21,0.3,0.47,0.3,0.77s-0.1,0.54-0.3,0.74c-0.2,0.19-0.45,0.29-0.73,0.29c-0.29,0-0.52-0.1-0.7-0.29
	C22.59,1.63,22.5,1.39,22.5,1.09z"/>
<path class="st0" d="M0,15.26C0,0.35,18.29,0.13,18.29,0.13c1.13,0.04,1.86,0.06,2.99,0.1c0.18,0.07,0.29,0.17,0.28,0.32
	c-0.01,0.2-0.07,0.41-0.34,0.35c-1.91-0.26-5.26-0.36-9.51,1.36C8.7,3.47,6.15,5.42,4.45,7.92C2.45,10.85,2.09,13.81,2,15.26"/>
<path class="st0" d="M36.3,12.16"/>
<path class="st0" d="M36.3,13.81c0,0,1.06-9.36-10.73-12.41c-0.08-0.02-0.18-0.12-0.16-0.19c0.01-0.06,0.06-0.16,0.13-0.16
	c1.48,0.18,2.92,0.68,5.28,1.8c3.06,1.46,6.33,3.94,7.14,8.02c0.11,1,0.23,2.01,0.34,3.01"/>
<polyline class="st0" points="0,31.66 39.63,31.66 39.63,33.01 0,33.01 "/>
<polyline class="st0" points="53.91,31.66 66.22,31.66 66.1,33.01 53.91,33.01 "/>
</svg>
